<svg xmlns="http://www.w3.org/2000/svg" viewBox="766.527 5320.527 20.473 20.473">
  <defs>
    <style>
      .cls-1 {
        fill: #ffb900;
      }
    </style>
  </defs>
  <g id="noun_972119_cc" transform="translate(975 5299)">
    <g id="Group_134" data-name="Group 134" transform="translate(-216.473 -978.835)">
      <path id="Path_81" data-name="Path 81" class="cls-1" d="M16.811,1000.362l-.712,2.486a8,8,0,0,0-1.832.756l-2.254-1.25-2.021,2.021,1.25,2.254a8,8,0,0,0-.756,1.832L8,1009.174v2.85l2.486.713a8,8,0,0,0,.756,1.832l-1.25,2.254,2.021,2.021,2.254-1.25a8,8,0,0,0,1.832.756l.712,2.486h2.85l.712-2.486a8,8,0,0,0,1.832-.756l2.254,1.25,2.021-2.021-1.25-2.254a8,8,0,0,0,.756-1.832l2.486-.713v-2.85l-2.486-.712a8,8,0,0,0-.756-1.832l1.25-2.254-2.021-2.021-2.254,1.25a8,8,0,0,0-1.832-.756l-.712-2.486Zm1.425,5.583a4.653,4.653,0,1,1-4.653,4.653A4.674,4.674,0,0,1,18.236,1005.946Zm0,2.792A1.861,1.861,0,1,0,20.1,1010.6,1.84,1.84,0,0,0,18.236,1008.737Z"/>
    </g>
  </g>
</svg>
