<?xml version="1.0" encoding="utf-8"?>
<!-- Generator: Adobe Illustrator 21.0.0, SVG Export Plug-In . SVG Version: 6.00 Build 0)  -->
<svg version="1.0" id="Layer_1" xmlns="http://www.w3.org/2000/svg" xmlns:xlink="http://www.w3.org/1999/xlink" x="0px" y="0px"
	 viewBox="0 0 360 360" style="enable-background:new 0 0 360 360;" xml:space="preserve">
<style type="text/css">
	.st0{fill:#E6E6E6;}
	.st1{fill:#A5A5A5;}
	.st2{fill:#B3B3B3;}
	.st3{fill:#8E8E8E;}
	.st4{fill:#9B9B9B;}
</style>
<circle class="st0" cx="180.3" cy="177.7" r="174.7"/>
<path class="st1" d="M50.3,294.3c32,35.6,78.4,58.1,130,58.1s98-22.4,130-58.1l-130-12.1L50.3,294.3z"/>
<path class="st2" d="M93.8,103.2c0,0,7.1-31.3,42.9-51.5c0,0,51.2-12.4,63.6-11.1c14.1,1.5,39.4,25.7,39.4,25.7s9.3-3.8,12.4-0.8
	c5,5,15.6,21.2,13.4,37.6c-3.1,22.5-12.6,45.9-12.6,45.9l6.1-6.1c0,0,9.1-0.5,8.1,7.6c-1,8.1,0,29.3-7.6,34.3s-10.1,5.6-10.1,5.6
	s-7.6,32.3-19.7,49c0,0-7.3,33.1-4,42.4l-44.9,19.2l-49.5-16.7c0,0,3.8-4.3-5.3-45.7c0,0-9.8-6.8-18.4-48.2c0,0-12.1-4.1-13.6-14.6
	c-1.5-10.6-6.6-29.3-1.5-30.8c5-1.5,6.1-4.5,12.6,5L93.8,103.2z"/>
<path class="st2" d="M54.1,255.4"/>
<path class="st2" d="M196,350.8"/>
<path class="st3" d="M187.9,312C187.9,311.9,187.9,311.9,187.9,312C187.9,312,187.9,312,187.9,312z"/>
<path class="st4" d="M189.5,317.8c0.9-0.3,1.6-1.1,1.7-2.1l2.4-15.9c0.2-1.2-0.5-2.4-1.6-2.9c-11.7-5.3-20.7-1.3-24.3,0.8
	c-1,0.6-1.5,1.7-1.3,2.9l3.2,15.3c0.2,0.9,0.9,1.7,1.7,2l-5.3,34c0,0,17.7,2,33.3-0.5C199.5,351.3,192.8,328.6,189.5,317.8z
	 M187.9,312C187.9,311.9,187.9,311.9,187.9,312C187.9,312,187.9,312,187.9,312z"/>
<path class="st3" d="M187.9,312C187.9,311.9,187.9,311.9,187.9,312C187.9,312,187.9,312,187.9,312z"/>
<path class="st4" d="M151,322.9l-36.7-17.5c-2-1-2.9-3.4-1.9-5.4l11.8-24.7c1-2,3.4-2.9,5.4-1.9l36.7,17.5c2,1,2.9,3.4,1.9,5.4
	l-11.8,24.7C155.5,323,153.1,323.8,151,322.9z"/>
<path class="st4" d="M209.5,322.9l33.4-15.9c1.9-0.9,2.6-3.1,1.8-5l-12.1-25.4c-0.9-1.9-3.1-2.6-5-1.8l-33.4,15.9
	c-1.9,0.9-2.6,3.1-1.8,5l12.1,25.4C205.5,323,207.7,323.8,209.5,322.9z"/>
<path class="st2" d="M117.7,266.5"/>
<path class="st0" d="M204.6,84.7c0,0-22.5,53.5-85.7,34C118.9,118.7,172.8,130,204.6,84.7z"/>
<path class="st0" d="M219.6,96.2c0,0,0.5,24.5,27.8,37.4C247.5,133.6,212.7,130.8,219.6,96.2z"/>
<path class="st0" d="M110.4,204.5c0,0,22.5,52.9,58.3,55.4C168.7,259.9,123.3,264.7,110.4,204.5z"/>
<path class="st0" d="M250.5,170.1c0,0-5,52-31.8,77.7C218.7,247.8,249.5,237.7,250.5,170.1z"/>
<path class="st0" d="M137.6,201.6c0,0-16-9.7-25.1-22.7C112.5,178.9,124.1,197.8,137.6,201.6z"/>
<path class="st0" d="M219.8,197.2c0,0,11.2-5.4,17.9-14C237.7,183.1,229.1,195.9,219.8,197.2z"/>
</svg>
